<?xml version="1.0" encoding="UTF-8" standalone="no"?>
<!-- Created with Inkscape (http://www.inkscape.org/) -->

<svg
   width="210mm"
   height="297mm"
   viewBox="0 0 210 297"
   version="1.1"
   id="svg5"
   inkscape:version="1.1.2 (b8e25be833, 2022-02-05)"
   sodipodi:docname="HabrIcon.svg"
   xmlns:inkscape="http://www.inkscape.org/namespaces/inkscape"
   xmlns:sodipodi="http://sodipodi.sourceforge.net/DTD/sodipodi-0.dtd"
   xmlns="http://www.w3.org/2000/svg"
   xmlns:svg="http://www.w3.org/2000/svg">
  <sodipodi:namedview
     id="namedview7"
     pagecolor="#ffffff"
     bordercolor="#666666"
     borderopacity="1.0"
     inkscape:pageshadow="2"
     inkscape:pageopacity="0.0"
     inkscape:pagecheckerboard="0"
     inkscape:document-units="mm"
     showgrid="false"
     inkscape:snap-page="false"
     inkscape:zoom="5.865376"
     inkscape:cx="105.96081"
     inkscape:cy="13.29838"
     inkscape:window-width="1920"
     inkscape:window-height="1009"
     inkscape:window-x="-8"
     inkscape:window-y="-8"
     inkscape:window-maximized="1"
     inkscape:current-layer="layer1" />
  <defs
     id="defs2" />
  <g
     inkscape:label="Слой 1"
     inkscape:groupmode="layer"
     id="layer1">
    <rect
       style="fill:#9393ac;fill-rule:evenodd;stroke-width:0.29311"
       id="rect153"
       width="29.368999"
       height="7.408"
       x="-8.1875434e-08"
       y="0.045109082" />
    <path
       d="M 2.4770356,3.064214 2.5045206,3.10512 C 2.4495496,3.10352 2.3919942,3.09819 2.381,3.07456 c 0,-0.00116 3.233e-4,-0.00222 6.722e-4,-0.00338 0.030718,-0.00809 0.057073,-0.00853 0.095389,-0.00693 z m 0.2919869,0.12449 0.01326,0.040418 -0.031042,0.00124 0.00744,-0.041386 c 0.00355,0 0.00679,-1.618e-4 0.010346,-4.845e-4 z M 2.8747582,3.483762 C 2.8472732,3.508989 2.8260932,3.525797 2.8097652,3.564117 2.7871312,3.545522 2.7753262,3.50866 2.7680542,3.467436 2.7599742,3.422494 2.7573852,3.372532 2.7512372,3.3351843 l 0.00196,-0.019075 0.031849,-0.00222 0.08116,0.1535903 0.00857,0.016169 z M 2.8336954,3.1051178 a 9.7857543,9.7857543 0 0 1 0.012447,-0.082782 l 0.01051,-6.72e-4 c -0.00776,0.027813 -0.015521,0.055617 -0.022957,0.083422 z m -0.022151,-0.3754113 0.1455082,0.039449 a 0.3193098,0.3193098 0 0 0 -6.722e-4,0.00649 C 2.8886394,2.8257605 2.826071,2.8477515 2.7924421,2.9382918 l 0.012771,-0.2014487 0.0063,-0.00693 z M 2.9473523,2.5211441 c -0.00938,0.093773 0.00391,0.1351619 0.020208,0.1933651 0.025867,0.018427 0.036218,0.029591 0.02781,0.056906 -0.043654,-0.021662 -0.089891,-0.044302 -0.1568257,-0.040746 a 0.45253071,0.45253071 0 0 1 -0.00483,-0.00569 c 0.018754,-0.073884 0.055295,-0.1193176 0.083587,-0.1778435 l 0.030235,-0.026187 z m 0.2092086,-0.1248136 0.0063,-4.844e-4 c -0.020049,0.0692 -0.028133,0.2287712 -0.063216,0.2921477 -0.082939,-0.039289 -0.081323,-0.2095322 0.011475,-0.2767887 l 0.045267,-0.014871 z m -0.077281,0.5125128 0.069844,0.075822 c -0.027485,0.084391 -0.079383,0.1479326 -0.1013702,0.2457471 l -0.041228,-0.0032 c -0.035246,-0.098462 0.052869,-0.258844 0.067904,-0.3306276 l 0.06467,0.00747 c 0.00808,0.020204 0.015844,0.040418 0.023764,0.060791 l -0.083586,-0.056097 z m 0.1911012,-0.513159 c -0.00711,0.081973 0.010993,0.12449 0.015844,0.1878665 -0.041063,0.021022 -0.082293,0.041715 -0.1233586,0.062569 a 0.85073834,0.85073834 0 0 1 0.060305,-0.2468787 z m 0.047858,-0.1244909 0.00922,-6.72e-4 -0.013901,0.039938 -0.027326,0.00178 0.02102,-0.024738 z m 0.00922,0.3823642 -0.1235206,0.075991 C 3.2065085,2.6836376 3.2650525,2.62171 3.3140396,2.6045724 l 0.011317,0.00613 z m 0.082455,-0.2874598 c -0.00759,0.042355 -0.015038,0.08456 -0.022309,0.1269157 l -0.023116,0.014551 -0.012289,0.013422 C 3.3298835,2.489618 3.3242258,2.4126638 3.3290711,2.354137 Z m 0.082132,-0.095389 c 0,0.0016 -3.239e-4,0.00293 -4.853e-4,0.00418 l -0.031524,0.03024 c -0.02102,0.00809 -0.023605,0.00773 -0.050119,0.00676 0.00342,-0.013742 0.00728,-0.027484 0.010993,-0.041227 z M 3.5745011,2.103859 3.5376421,2.187121 3.4099181,2.177901 3.4104032,2.171141 C 3.4629482,2.146892 3.5090252,2.11811 3.5743422,2.103719 Z m -0.06661,0.2166451 0.013578,-0.00809 0.0118,0.041707 -0.041228,-0.00809 0.015844,-0.025706 z m 0.1076746,0.1233593 c -0.048988,0.019075 -0.1167299,0.013742 -0.1560172,0.035573 a 12.596489,12.596489 0 0 0 -0.00857,-0.050115 l 0.025542,-0.033466 c 0.041552,0.016169 0.083102,0.032658 0.1244903,0.048986 z m -0.1052511,0.075022 -0.055943,0.00204 c -0.00128,-0.00578 -0.00226,-0.011644 -0.00342,-0.017627 0.039285,-0.016 0.105251,-0.017467 0.164586,-0.024089 l -0.062568,0.034435 z m 0.1463167,0 c -0.047045,0.011804 -0.092155,0.053351 -0.1230354,0.085688 -0.00599,-0.037831 0.066611,-0.104443 0.1013709,-0.1252988 0.015362,0.013742 0.016975,0.012284 0.021662,0.039609 z m 0.082455,-0.4984471 -6.722e-4,0.00649 -0.049471,0.029911 -0.073401,0.00533 6.721e-4,-0.00649 z m -0.06661,0.1251371 -0.015844,-0.02344 c 0.037183,-0.0312 0.1191551,-0.014062 0.164748,-0.00938 z M 4.0407671,2.0226979 c 0.068713,0.00569 0.1316043,0.021822 0.1794606,0.051742 l 0.012612,-7.938e-4 -0.00759,0.010667 -0.065801,0.019404 C 4.1198397,2.0982071 4.0802277,2.0924011 4.040778,2.0867391 l -0.2606212,-0.037022 6.721e-4,-0.00533 a 0.86900771,0.86900771 0 0 1 0.2599699,-0.021502 z m 0.2737176,-0.021982 -0.014549,0.019724 A 0.1988613,0.1988613 0 0 1 4.1916132,1.9787337 l 0.1235198,0.015689 z m 0.2192324,0.1542382 0.034115,-0.012933 0.035405,0.030391 c -0.00483,0.034755 -0.03832,0.063217 -0.064024,0.097006 l -0.019725,0.00124 C 4.4658135,2.1817735 4.3980701,2.084606 4.2792382,2.0503315 l -0.00519,-0.010507 0.048017,-0.019404 c 0.080676,0.028133 0.1479329,0.070817 0.2227893,0.095389 0.0097,0.02344 0.00663,0.01552 -0.011316,0.039129 z m 0.099269,0.1977296 -0.00938,-0.00922 -0.020372,0.00142 0.03395,-0.032338 z m 0.036377,0.4604536 c 0.055618,0.048177 0.069844,0.1180233 0.046721,0.2085615 -0.023929,-0.053671 -0.047693,-0.107515 -0.071784,-0.1611911 0.00808,-0.011964 0.015686,-0.023929 0.023605,-0.035893 4.852e-4,-0.00382 7.944e-4,-0.00773 0.00147,-0.011475 z m 0.016169,-0.3750887 -6.722e-4,0.00773 -0.029264,0.033467 -0.011316,-0.022151 c 0.017623,-0.031529 0.00483,-0.014551 0.027968,-0.017787 z m 0.034274,-4.844e-4 0.1303106,0.048338 c -1.613e-4,0.00436 -6.721e-4,0.00871 -0.0011,0.012933 -0.010993,0.00756 -0.021986,0.014871 -0.032985,0.022151 l -0.1304725,-0.048177 0.00116,-0.013093 z m 0.253831,0.1670105 -0.072269,-0.048018 -0.010021,-0.019404 c 0.031365,-0.019404 0.026838,-0.018427 0.059982,-0.011964 0.00728,0.026515 0.014873,0.052871 0.02231,0.079217 z m 0.041063,-0.015849 -0.014549,0.015849 c -0.017458,-0.00906 -0.020531,-0.020533 -0.026514,-0.041875 l 0.037672,0.016489 z M 4.983982,2.4692475 4.9736362,2.4700421 c 0.011317,-0.010836 0.022634,-0.021662 0.034274,-0.032338 -0.00808,0.010507 -0.016169,0.021022 -0.023929,0.031529 z m 0.1954658,0.2098548 -0.020208,0.00889 a 37.208081,37.208081 0 0 1 -0.1101007,-0.06192 15.963874,15.963874 0 0 1 -0.034439,-0.046889 c 0.057073,-0.042035 0.059175,0.00676 0.1130115,0.033466 z m 0.041063,0.036862 -0.041063,-0.01504 0.024736,-0.012933 z m -0.050119,0.067262 c 0.014873,0.029911 0.014873,0.021502 0.050119,0.016978 l -0.063215,0.054649 -0.060306,-0.1151132 7.944e-4,-0.00711 c 0.04446,-0.00954 0.058686,0.00649 0.1021794,0.012933 l 0.016651,0.026835 -0.04608,0.010836 z m 0.00906,0.074853 0.082293,-0.044942 c -0.016492,0.037182 -0.037995,0.056257 -0.063377,0.083422 z M 5.344038,3.0173309 c -0.02231,0.019236 -0.036859,0.025386 -0.079059,0.028942 l 0.03395,0.00373 -6.722e-4,0.00596 -0.115922,0.049146 -0.00293,-0.1487423 0.079868,-0.09458 0.014549,-0.00693 z M 5.30281,2.7890459 C 5.5301261,2.7256689 5.48615,2.8462809 5.38478,2.9382727 5.357295,2.8886377 5.329974,2.8388417 5.30281,2.7890459 Z m 0.2058129,0.024089 c -0.083748,0.3935196 -0.099916,0.4150217 -0.3961061,0.5841346 -0.00483,-0.00791 -0.010187,-0.01568 -0.015521,-0.023449 l 0.01051,-0.043973 C 5.3007044,3.2748787 5.4104823,3.1736685 5.3990035,2.9445738 l 0.096844,-0.12449 z m 0.010021,0 c -0.00324,-0.013582 -0.00646,-0.027164 -0.010021,-0.040747 l 0.030718,-9.777e-4 z m -0.5039435,0.3826868 0.00293,-0.043493 0.00257,-0.037182 0.028457,-0.00954 c 0.00147,0 0.00275,-3.236e-4 0.00404,-4.854e-4 0.00808,0.049315 0,0.085688 -0.016169,0.1252989 -0.013901,-0.00889 -0.016651,-0.012613 -0.021826,-0.034595 z m -0.1645855,0.3650638 6.721e-4,-0.00729 0.054,-0.1291789 0.011317,-0.027164 0.095065,0.00649 c 0.00147,0.00711 0.00244,0.014062 0.00293,0.020693 0.00421,0.049146 -0.012771,0.088435 -0.030235,0.1396881 z m 0.041228,0.167496 0.00116,-0.064666 0.00159,-0.016169 0.069521,0.00516 0.010021,-7.938e-4 c -0.016004,0.026355 -0.031849,0.052702 -0.047534,0.079217 z m -0.040746,-0.2699985 0.00421,-0.00204 0.03282,-0.016978 0.00372,-3.226e-4 -0.00483,0.017298 -0.019236,0.066124 -0.017135,-0.058853 z m -0.064189,0.2077531 -0.018595,-0.018595 c 0.018106,0.012613 0.0063,3.236e-4 0.018595,0.018595 z M 4.6855225,3.6165008 c 0.023116,-0.014551 0.048182,-0.010018 0.082455,-0.00971 l -0.010187,0.033466 c -0.028292,0.011316 -0.032338,0.00711 -0.064185,0.00373 z m 0.050443,0.1561796 0.031849,0.075342 c -0.024577,0.016649 -0.049313,0.033146 -0.073886,0.049955 -0.021986,-0.03024 0.00196,-0.1147905 0.042034,-0.1252989 z m -0.081323,-0.261915 -0.010345,7.938e-4 0.013578,-0.03088 -0.00324,0.03024 z m 0.1185087,0.011644 -0.00532,-0.00338 0.018106,-0.038151 0.00599,-1.618e-4 0.01714,0.040098 z m 0.2850343,-0.5424229 -0.00226,-0.014062 c 0.010834,-0.013262 0.017782,-0.021502 0.036377,-0.027484 l 0.00483,0.024578 c -0.00808,0.00533 -0.016169,0.010507 -0.024088,0.016 z m -0.00226,0.1018555 c -0.00744,0.00987 -0.020697,0.01536 -0.03007,0.02328 L 5.0146997,2.8965607 Z m -0.075505,0.2796989 c 0.027162,-0.0152 0.031042,-0.00107 0.034274,0.035573 h -0.082294 l 0.00147,-0.012933 z m -0.040422,-0.115274 0.018595,-0.015849 0.015038,0.026835 -0.00695,0.014871 -0.034274,-0.004 z m -0.00759,0.110586 -0.042841,0.040418 -0.027968,-0.00471 -0.011316,0.00107 c 0.00646,-0.012773 0.013259,-0.025538 0.019883,-0.038151 z m -0.1552173,-0.02377 c -0.01714,-0.011964 -0.00483,-0.010347 -0.00808,-0.019404 z M 4.9068566,3.1468331 4.7678158,3.0747269 c 0.00646,-0.095389 0.018106,-0.2050052 0.00873,-0.3033042 0.1071906,0.0388 0.2033877,0.2132504 0.13031,0.3754113 z m -0.097814,0 c 0.034115,0.018107 0.032337,0.034595 0.079706,0.049146 0.00824,0.03088 -0.00434,0.043164 -0.024088,0.075991 l -0.050443,-0.00196 c -0.010345,-0.054969 9.778e-4,-0.086497 -0.00519,-0.1231967 z m 0.00938,0.2698368 c -0.0173,-0.011964 -0.00483,-0.010347 -0.00808,-0.019404 z m 0.2785673,-0.4016023 4.853e-4,-0.00773 0.037183,-0.027324 c 0.00646,0.042684 0.00404,0.1138199 -0.00568,0.1668489 -0.021988,-0.017138 -0.026034,-0.089568 -0.032016,-0.1317664 z m 0,0.1317655 c 0.00841,-0.013902 0.016817,-0.027813 0.0249,-0.041706 l -0.014549,0.041066 z M 5.337079,3.0221814 5.344029,3.021696 C 5.345989,3.1815938 5.247347,3.210695 5.1176827,3.2706769 l -0.020697,0.00151 0.080838,-0.167496 z M 5.0929483,2.709823 c 0.00128,0.00418 0.00275,0.00827 0.00385,0.012444 l -0.010187,0.00747 -0.030877,-0.041706 z m -0.037183,0.06952 0.00116,-0.00729 a 0.54161412,0.54161412 0 0 1 0.00906,-6.72e-4 l 0.031042,0.041707 C 5.0730983,2.801773 5.0692173,2.798866 5.0557993,2.779142 Z M 5.0968283,2.8860488 5.0413753,2.9382707 4.9222198,2.7652779 4.7676574,2.6310875 4.8016084,2.6045721 c 0.074856,0.032338 0.2058129,0.093934 0.232166,0.1708915 0.00857,0.025058 -0.02102,0.04576 -9.778e-4,0.066613 0.023929,0.024898 0.047858,0.00711 0.064185,0.043813 z m -0.3472797,0.2607834 0.012612,0.00498 0.0055,0.1202865 -0.019236,-0.00453 C 4.7303122,3.254141 4.7177007,3.1920613 4.7341931,3.1650633 Z m -0.091185,0.2092087 0.01326,-4.853e-4 0.013743,0.032658 -0.02102,0.00809 -0.020208,9.778e-4 c 0.00483,-0.013742 0.0097,-0.027484 0.014226,-0.041227 z m -0.037506,0.6670737 -0.017782,-0.060951 c 0.025383,-0.00729 0.050608,-0.014551 0.075987,-0.022151 l 0.00646,-3.235e-4 a 0.08520318,0.08520318 0 0 0 -7.944e-4,0.00569 l -0.06386,0.077608 z m -0.05901,-0.1668489 c 0.00759,-0.024578 0.012936,-0.028293 0.026679,-0.041875 l 0.011317,0.00453 0.00324,0.010667 -0.025384,0.024898 -0.015844,0.0016 z m 0.019401,0.041715 -0.019401,-0.021342 0.041228,-0.020373 -0.010669,0.040907 z m -0.043329,0.1891607 c -0.0058,-0.00453 -0.011317,-0.00922 -0.01714,-0.014071 l 0.012612,-7.938e-4 0.063539,-0.049146 0.00614,0.050115 -0.048665,0.033307 z m 0.00324,0.4779139 c -0.099103,0.00418 -0.1584382,-0.021022 -0.2392764,-0.028133 l -0.09264,-0.1831786 -0.017782,-0.018426 c 0.155532,-0.018427 0.253346,-0.093449 0.3686209,-0.1453477 0.040746,0.0388 0.1330592,0.2363703 0.051738,0.3238374 -0.019401,0.029911 -0.041228,0.032986 -0.070814,0.051253 z m -0.4255275,-0.2058131 0.037183,-0.0024 c 0.056101,0.037671 0.094257,0.1050892 0.1210952,0.1670106 L 4.1091571,4.4761557 c 0.012289,-0.041706 0.017464,-0.084071 0.00646,-0.1168918 z M 3.997286,4.2017693 l 0.185604,-0.05352 0.2916631,0.028453 0.00519,0.014711 C 4.3929241,4.2305423 4.2941401,4.2635193 4.194548,4.3139637 4.0867102,4.3224937 4.0606804,4.2822747 3.9859864,4.2557597 l 0.011482,-0.054 z m -0.011475,0.196598 0.00372,-0.036213 0.070976,-0.00533 c 0.0058,0.031529 0.011964,0.049146 0.00324,0.083422 L 3.985817,4.3982113 Z M 3.903356,4.4636823 3.931,4.4484823 c 0.03395,-0.022471 0.059334,0.00747 0.095874,0.019235 L 4.0123183,4.4819406 3.9035102,4.463674 Z M 3.983385,4.3985273 A 2.5803466,2.5803466 0 0 1 3.956541,4.3864033 l -0.011964,-0.029591 0.041228,0.00258 z m -0.1210953,0 0.041228,0.035404 c 0,0.021831 -0.00196,0.019404 -0.00695,0.048017 z M 3.7555774,4.2421854 c 0.038643,-0.011804 0.090054,-0.00922 0.1479336,-0.010507 L 3.84967,4.2733854 3.7389218,4.2625504 Z m -0.098946,-2.090954 c 0.076472,-0.073075 0.2682204,-0.051253 0.316238,-0.0048 l 0.012936,-0.00116 C 3.9219439,2.2049378 3.8229985,2.2117288 3.762208,2.2707392 3.714515,2.2390505 3.6750654,2.2186773 3.6566337,2.1512616 Z m 0.4203575,0.1194785 0.032337,0.036702 c -0.028781,0.0016 -0.05901,0.00338 -0.089245,0.00596 -0.068065,0.00578 -0.1353225,0.016 -0.1823703,0.040418 l -0.00614,3.235e-4 a 8.2718216,8.2718216 0 0 1 -0.010187,-0.016 0.58914681,0.58914681 0 0 1 0.2496271,-0.066933 z m 0.160383,-0.2085616 c 0.053193,0.053351 0.132574,0.08504 0.1600587,0.1668489 -0.111556,-0.051902 -0.283256,-0.051093 -0.3702377,-0.1337051 0.076634,0.016329 0.1419519,0.010187 0.210179,-0.033146 z m 0.0367,0.2919869 0.1526217,0.021022 0.011965,-9.777e-4 -0.1223883,0.1050901 c -0.019401,-0.03864 -0.023929,-0.091023 -0.0422,-0.1251362 z m 0.1961125,0.1784897 -0.031524,-0.0048 0.041063,-0.00676 -0.0097,0.011644 z m -0.031524,-0.099754 0.037672,-0.037022 0.00342,0.041706 -0.027327,-0.00596 z m 0.074695,1.3807116 -0.018106,7.947e-4 -0.015521,-0.014551 0.011964,-0.01568 0.029105,-0.011316 -0.00744,0.040907 z m -0.03282,0.076311 c 0.00483,-0.00578 0.010021,-0.011644 0.015197,-0.017467 l 0.00128,-0.016169 0.023929,0.038 -0.041228,0.00373 z m -0.016327,0.1332206 -0.025542,-0.03072 0.082293,-0.010996 -0.039285,0.040418 z m 0.015521,0.1251371 -0.082293,-0.00986 0.058203,-0.031849 0.024253,0.041706 z m -0.057721,-0.1176998 0.016652,0.015849 -0.059658,0.0152 -0.063863,0.0032 0.088922,-0.041706 z M 4.1917808,2.2289963 c 0.048017,0.00124 0.098784,0.013422 0.1233586,0.041706 -0.033144,-0.0032 -0.092802,0.00204 -0.1078377,-0.02344 z m 0.041711,0.1668498 c 0.02344,0.020533 0.03169,0.044782 0.027485,0.083422 -0.036218,-0.012444 -0.026838,-0.052062 -0.027485,-0.083422 z m 0.040421,0.2630466 0.00147,-0.00711 c 0.08197,-0.017787 0.099592,0.010667 0.062245,0.036213 -0.032338,-0.00453 -0.046887,-0.016649 -0.063539,-0.029102 z m 0.1055744,1.0720724 0.017947,0.00453 a 0.24089703,0.24089703 0 0 0 -6.722e-4,0.00578 L 4.35634,3.7726441 4.373156,3.7314171 Z m -0.022634,-1.0175874 0.030718,-0.025387 0.00986,0.041706 -0.041063,-0.00906 3.233e-4,-0.00729 z m 0.1228735,1.1155637 -0.09943,0.026027 -0.023929,0.00116 c 0,-0.00124 3.232e-4,-0.00276 6.722e-4,-0.004 0.037183,-0.00747 0.061113,-0.019724 0.083101,-0.037671 l 0.034922,0.00649 0.00483,0.00809 z m -0.070976,-0.097976 -0.011317,-0.02312 0.028292,-0.018595 0.012936,0.00693 -0.016169,0.033626 z m -0.258196,0.2885922 0.048988,-0.038151 0.1516518,0.012933 0.00519,0.011315 -0.1025025,0.059173 c -0.037995,-0.00631 -0.070816,-0.02312 -0.09054,-0.04624 l -0.012936,9.778e-4 z m -0.076149,0.00356 0.075988,0.041707 -0.1233587,-0.021822 c 0.015844,-0.00649 0.031524,-0.013262 0.04737,-0.019884 z m -0.00614,0.0852 a 1.1511321,1.1511321 0 0 0 -4.851e-4,0.010018 l -0.023446,0.012933 -0.017299,0.00222 6.722e-4,-0.010018 c 0.017947,-0.023769 0.014873,-0.015849 0.040421,-0.0152 z M 3.8742547,2.4102238 a 0.97361199,0.97361199 0 0 0 -0.011805,-0.012444 c 0.040905,-0.022311 0.1054125,-0.032987 0.1687896,-0.038 0.052221,-0.00436 0.1036343,-0.0048 0.1404964,-0.00569 l 0.020049,0.125138 C 4.1379436,2.473451 4.086695,2.4662955 4.0312403,2.4638688 a 0.84071442,0.84071442 0 0 0 -0.1435682,0.00516 6.6376023,6.6376023 0 0 0 -0.013419,-0.058853 z m 0.060465,1.6741536 0.010021,0.017778 -0.0097,0.037351 -0.113658,0.00871 c 0.012123,-0.037182 0.030235,-0.055129 0.049795,-0.083422 z M 3.7943839,3.9396777 C 3.7426456,3.9367444 3.6718338,3.8989313 3.6566361,3.856256 l 0.1647481,0.041875 z m 0.05788,-0.00222 -0.030877,0.00222 9.777e-4,-0.010018 0.034274,-0.031689 c -0.00165,0.013093 -0.00293,0.026187 -0.00434,0.039449 z M 3.739091,2.4117229 3.78921,2.3958739 3.821382,2.4362919 3.787432,2.4375319 3.738933,2.4116649 Z M 3.7384189,4.203091 c -0.00275,0.00906 -0.00519,0.018267 -0.00776,0.027484 -0.00404,1.617e-4 -0.00808,6.72e-4 -0.011964,0.00107 A 14.979268,14.979268 0 0 0 3.6978379,4.18993 l 0.041228,0.00418 z m 0.022799,-0.1799448 0.096036,0.019404 0.00519,0.012933 -0.074533,0.092801 -0.090053,-0.013262 z m 0.7184873,-1.3076348 0.018594,-0.027324 0.00679,-1.617e-4 0.051738,0.012933 0.00519,0.00747 -0.057721,0.021342 A 6.7127814,6.7127814 0 0 0 4.4797226,2.7155341 Z M 4.5910989,2.5806326 4.5619942,2.5628549 c 0.029587,0.010835 0.012612,-0.00142 0.029105,0.017778 z m -0.00938,0.1907777 -0.019725,-0.016818 0.041228,-0.024898 z m -0.019725,0.2919868 0.064024,0.015849 c 0.017299,0.00676 0.016816,0.00853 0.018271,0.025867 -0.027485,-0.010507 -0.073401,-0.017778 -0.082293,-0.041707 z m 0.00646,-0.113658 0.00873,-0.011315 0.026031,0.041555 -0.041228,-0.00809 z m -0.8337597,1.3727899 0.00434,0.010995 -0.055453,0.021182 -0.027003,0.00204 6.722e-4,-0.00569 0.018918,-0.029591 c 0.02619,-0.012124 0.026838,-0.00418 0.058527,9.778e-4 z M 3.615543,2.2288239 C 3.651436,2.2556589 3.66081,2.2886459 3.655152,2.3958345 3.631547,2.3655945 3.617157,2.3014165 3.615543,2.2289856 Z m 0.023605,-0.083262 -0.00293,0.03024 -0.020531,0.00142 0.023605,-0.031689 z m -0.023605,0.041706 c -0.00116,0.010018 -0.00196,0.020053 -0.00324,0.030071 l -0.037995,-0.00693 0.031366,-0.022471 0.0097,-6.72e-4 z m 0,2.4199647 0.020372,-0.2124424 0.1442152,-0.038 -0.151652,0.242676 z M 3.62573,4.0361931 3.647881,4.0231001 c 0.020208,0.023929 0.00208,0.058364 -0.016975,0.083422 C 3.615062,4.0916511 3.613283,4.0822641 3.617487,4.0484781 l 0.00808,-0.012284 z m -0.1337057,-0.020373 0.047369,-0.076151 0.075987,0.044622 C 3.5895133,4.0250381 3.5631593,4.0657751 3.5369673,4.106518 3.5133623,4.085496 3.4988133,4.054625 3.4920233,4.01598 Z m 0,0.3267476 0.075987,-0.0692 0.035729,0.0032 0.011805,0.019404 c -0.00324,0.020373 -0.00614,0.040578 -0.00906,0.060791 z m -0.1233586,-0.056586 0.090538,-0.05432 0.068874,0.010836 0.00519,0.00954 -0.072595,0.063057 c -0.036217,-0.00374 -0.060304,-0.013424 -0.07922,-0.029913 l -0.012936,7.938e-4 z m -0.012123,-0.080675 0.033144,-0.01536 0.014226,0.00302 0.0058,0.00676 -0.095874,0.031849 -0.027485,-0.00971 z M 3.245147,4.1661778 3.2694002,4.1074937 c 0.044944,-0.00578 0.055618,0.016329 0.089406,0.030391 l 0.0097,0.014871 -0.050284,0.034435 -0.040905,0.00276 z M 3.162692,4.3373929 3.222674,4.2316566 c 0.039774,0 0.044626,0.0032 0.060954,0.024258 0.00728,0.012284 9.778e-4,0.00569 -0.014873,0.00844 l -0.00372,0.036373 0.062407,0.0097 c -0.012288,0.03056 -0.014226,0.026515 -0.032661,0.045911 -0.061436,0.0032 -0.089083,-0.00844 -0.1319275,-0.018915 z m -0.069197,-0.147449 0.104604,0.031529 0.0058,0.012444 -0.067098,0.081164 -0.097491,-0.032009 z m -0.4030584,-0.1128491 0.00128,-0.012444 0.058362,0.044942 0.00501,0.011964 c -0.1214186,0.093772 0.064347,0.39934 0.275657,0.2012869 l 0.090862,0.036542 C 3.08669,4.4216342 3.0267083,4.446203 2.9634931,4.4814499 2.8123258,4.4940632 2.6006924,4.2471819 2.6902608,4.0770983 Z m 0.1409816,0.042684 0.00226,0.028293 c -0.011316,-0.00853 -0.022634,-0.016818 -0.033627,-0.025387 l -0.0076,-0.016329 0.038802,0.013422 z m 0.207915,0.1771973 -0.075179,0.058204 C 2.8160594,4.3707003 2.7560773,4.2681942 2.7512273,4.1422526 l 0.028939,-0.034924 0.012612,-9.778e-4 c 0.074532,0.058693 0.1404964,0.1482588 0.2417054,0.1778453 z M 2.8959271,3.6890782 c -0.013419,-0.00971 -0.014226,-0.014551 -0.02102,-0.03104 l 0.028133,-0.1070288 0.03282,-0.028782 0.02118,0.03104 z m -0.02102,0.036053 0.064832,-0.1534294 0.01326,-0.00773 c 0.029911,0.052702 0.073239,0.076631 0.086335,0.1482569 l -0.097652,0.1019888 a 0.19772957,0.19772957 0 0 1 -0.066934,-0.088921 z m 0.1233586,0.1277247 0.082455,-0.080355 0.040905,0.083582 c -0.041063,-0.00124 -0.082132,-0.00222 -0.1233586,-0.0032 z M 3.203917,3.0097165 C 3.16495,3.0929785 3.113055,3.1495664 3.0820133,3.2302425 3.0684353,3.1570075 3.1502403,3.0517528 3.1765933,2.987082 l 0.012612,-0.00729 z m 0,-0.2295792 c 0.061275,-0.018915 0.1023407,-0.05352 0.1461548,-0.092317 l 0.018594,0.055617 -0.052062,0.06952 L 3.2039166,2.7803 Z m 0.2058136,0.00436 -0.02231,0.028453 -0.018754,-0.0032 3.233e-4,-0.00453 0.037506,-0.033946 z m -0.032338,-0.179784 0.00646,-3.235e-4 0.025867,0.054489 -0.0097,0.028942 c -0.037669,-0.019716 -0.036215,-0.043164 -0.022631,-0.083093 z m -0.00776,1.2094966 0.037995,0.027324 -0.038967,-0.017138 a 0.16652612,0.16652612 0 0 1 9.778e-4,-0.010187 z m -6.722e-4,0.041875 0.040746,0.017626 a 0.14550827,0.14550827 0 0 0 -6.722e-4,0.0048 l -0.087305,0.060951 c -0.025059,-0.011315 -0.028133,-0.033795 -0.03557,-0.058204 l 7.943e-4,-0.00516 z m -0.1217411,-0.083582 0.039126,0.015849 -0.02102,0.012124 -0.020208,0.00222 z M 3.2451398,2.938252 c 0.049471,0.013902 0.033792,0.00453 0.035893,0.041555 C 3.2584018,2.966545 3.2567828,2.960243 3.2451428,2.9381 Z m 0,0.745164 0.00342,-0.036053 c 0.019236,0.013422 0.025867,0.021342 0.037831,0.041706 a 9.8638436,9.8638436 0 0 0 -0.041228,-0.00569 z m 0.082455,-0.5210807 c -0.015521,0.019884 -0.014873,0.014551 -0.041228,0.026026 l 0.017947,-0.041706 0.023123,0.015689 z m 0,-0.1678205 -0.025867,0.026995 c -0.025867,-0.014551 -0.013743,-0.00871 -0.00208,-0.035733 l 0.015356,-0.00596 0.012447,0.014711 z m -0.00342,-0.070977 -0.037831,-0.027164 c 0.029105,0.011156 0.02231,0.00436 0.037831,0.027164 z m -0.079059,0.7655355 0.041228,0.032818 c -0.02102,-4.845e-4 -0.032338,-0.00498 -0.041228,-0.032818 z m 0.1235206,-0.00169 -0.016817,0.00169 -0.01439,-0.026515 -0.010021,-0.012933 0.02231,-0.00222 c 0.0063,0.013422 0.012447,0.026835 0.018918,0.040097 z M 3.3460027,2.9149037 3.3274082,2.8964771 c 0.018106,0.012613 0.00614,3.236e-4 0.018429,0.018595 z m 0.00244,0.6871216 -0.02102,-0.043653 0.00889,-0.035893 0.00519,-3.227e-4 0.027162,0.083422 a 6.0159585,6.0159585 0 0 0 -0.020208,-0.00356 z m -0.1078378,0.485513 0.00452,0.00551 -0.014714,0.055129 a 0.11268807,0.11268807 0 0 1 -0.067585,-0.083431 l 0.077766,0.02296 z m -0.1189938,0.060631 0.041228,0.036542 c -0.026355,-0.011644 -0.027968,-0.011156 -0.041228,-0.036542 z m 0.071137,-0.3699136 0.00483,0.036053 -0.034763,-0.041706 z m -0.040746,0.1951421 -0.030395,-0.075502 c 0.036052,0.013742 0.064185,0.054969 0.082455,0.083422 z m 0.032338,-0.7427383 0.010187,-3.235e-4 -0.03007,0.041706 c -0.00483,-0.010347 0.0011,-0.020204 0.017782,-0.032338 l 0.00208,-0.00922 z m -0.021503,0.3585972 -0.00824,0.016489 -0.023605,-0.018267 a 18.88374,18.88374 0 0 1 -0.00938,-0.019884 l 0.032338,-0.00356 z m -0.2881072,0.350351 c 0.082455,0.05368 0.222628,0.1034723 0.2468791,0.2085616 A 0.68453555,0.68453555 0 0 1 2.8747344,3.9396226 Z m 0.2138972,-0.040418 0.032979,0.040418 -0.082293,-0.041706 z m 0.3013636,0.1238428 -0.062568,-0.063057 0.1094546,-0.1037959 0.014067,0.1143052 z m 0.060954,0.06968 0.010834,-0.027164 0.014549,-7.947e-4 0.015686,0.041706 z m 0.055453,-0.1531077 -0.01439,-0.041706 0.029911,0.00551 z m -0.055453,-1.404963 3.238e-4,-0.00373 c 0.013584,-0.0032 0.027162,-0.00649 0.040746,-0.010018 l -0.028457,0.041707 z M 3.035927,3.3971829 2.9982552,3.3137611 c 0.048341,0.010507 0.040422,0.044942 0.037672,0.083422 z m -0.1007238,0.041706 c -0.035246,-0.024409 -0.057721,-0.073075 -0.060471,-0.125138 0.072269,0.016978 0.068228,0.045431 0.082455,0.111395 z M 2.8926798,3.2211118 c -0.052545,-0.049635 0.023929,-0.2481728 0.057555,-0.2939264 0.017782,-0.022471 0.040097,-0.021982 0.06952,-0.03072 l 0.019566,0.00498 c -0.049471,0.087626 -0.082778,0.2069465 -0.094581,0.3288489 z m -0.076796,0.6767751 0.025059,0.042204 -0.022474,0.052542 -0.012936,0.013742 c 0.018429,0.00258 0.022634,-0.013262 0.050119,-0.035733 0.053352,0.086497 0.1348379,0.1692747 0.2247295,0.2163224 l -0.048988,0.086337 -0.1487421,-0.095712 c -0.016975,-0.031529 0.00646,-0.067742 -0.020855,-0.086977 -0.024736,-0.017467 -0.056584,0.00773 -0.081808,1.618e-4 l -0.069844,-0.064026 c 0.020531,-0.04592 0.040257,-0.090862 0.080838,-0.1143052 z M 2.6736088,3.4377756 a 1.0751444,1.0751444 0 0 1 0.024088,-0.1235203 l 0.0055,-4.853e-4 0.021503,0.1240056 0.011316,0.064666 c 0.032338,0.090215 0.064993,0.1802692 0.097652,0.2701612 C 2.7554192,3.7299189 2.7070779,3.6311363 2.71403,3.4982392 2.6952763,3.5410834 2.7107944,3.6085017 2.7169633,3.6463335 2.6689466,3.6055871 2.6627991,3.524592 2.6734746,3.437772 Z m -0.071461,0.042844 a 0.15213698,0.15213698 0 0 1 -0.013901,-0.050115 0.32836366,0.32836366 0 0 1 6.722e-4,-0.070329 l 0.00711,-0.014871 0.031849,-0.031529 -0.017947,0.1165683 -0.00776,0.050115 z m 2.8652195,0.4171239 -0.082293,-0.031689 0.079868,-0.00986 0.00244,0.041706 z m -2.177774,0.679039 0.021503,-0.011316 -0.0249,0.041555 0.00324,-0.030071 z m -0.6206731,-1.4298614 -0.035087,-0.0032 c -0.043654,-0.014391 -0.084556,-0.065315 -0.088274,-0.1219033 0.066772,0.00596 0.089406,0.037671 0.1223883,0.076311 3.233e-4,0.016169 7.944e-4,0.032498 9.777e-4,0.048826 z m -0.00483,-0.00338 C 2.6689202,3.0534923 2.6002307,2.9972295 2.510986,2.9996544 2.5261832,2.8732239 2.6361228,2.8085532 2.7340987,2.7660325 l 0.018918,-0.00151 c -0.016328,0.1587643 -0.00391,0.2955422 -0.063216,0.4329664 -0.043813,0.1012092 -0.1991848,0.099269 -0.1907773,0.2554484 l 0.00116,0.012933 c 0.022151,0.2075918 0.2478488,0.2497889 0.279052,0.4323203 -0.3346688,0.1702454 0.07324,0.885661 0.3379029,0.465466 0.047534,0.00676 0.08973,0.028293 0.1487415,0.00756 0.027485,-0.0152 0.03282,-0.027484 0.043489,-0.059173 l 0.094581,0.048986 0.00483,0.011964 C 3.3221209,4.440243 3.2610074,4.5325634 3.1678822,4.5956173 l 0.00889,-0.025546 -0.024253,-0.00436 -0.013419,0.00729 -0.012123,0.056586 c 0.053193,0.05432 0.2143825,-0.1421157 0.2615916,-0.1805937 -0.026679,0.093287 -0.09264,0.1413041 -0.1293403,0.226669 l 0.011317,0.011644 C 3.3400648,4.6375149 3.4252686,4.4965343 3.4382023,4.3893429 l 0.1041195,0.017298 C 3.4118492,4.5830289 3.0766953,4.9710517 2.9004685,5.0746858 2.9273066,4.9904552 2.969989,4.9261053 2.9916537,4.8569083 l -0.012612,9.778e-4 a 2.328294,2.328294 0 0 0 -0.011316,-0.011644 c -0.042842,0.084391 -0.1134961,0.1437281 -0.1261066,0.257548 a 0.11123298,0.11123298 0 0 0 0.028133,0.028942 C 3.0792831,5.0978555 3.4291501,4.5712779 3.5963228,4.4273862 3.5510555,4.8816958 3.3075696,4.9525096 3.0964209,5.2276814 3.2883304,5.13197 3.4047371,4.8878388 3.568838,4.7523542 3.5507323,4.9420003 3.5056232,5.3660754 3.392126,5.4415781 L 3.41088,5.4401581 C 3.5382796,5.3609296 3.5457168,5.035158 3.5882379,4.8686318 l 0.018106,-0.175095 0.1818852,-0.2554475 0.01326,-0.00729 c 0.020372,0.063858 0.1125264,0.1332206 0.2122804,0.1146278 l 0.071622,-0.030071 0.1797837,0.067253 C 4.2887802,4.8412912 4.2797242,4.9863144 4.115949,5.1832352 4.283283,5.0977062 4.34472,4.7682134 4.288942,4.5932801 4.6780957,4.6383911 4.662413,4.5071121 4.5886887,4.2236883 l 0.068389,0.00116 c -0.012612,-0.018915 -0.046728,-0.0048 -0.072753,-0.019404 -0.011805,-0.00756 -0.00954,-0.00613 -0.016816,-0.017466 0.092478,-0.1042804 0.3152668,-6.72e-4 0.268381,0.1725084 0.064023,-0.1435722 -0.077443,-0.271296 -0.2137358,-0.2198829 0.058203,-0.06904 0.1286937,-0.1257842 0.1655558,-0.2171313 l 0.01326,-0.00711 0.3201181,0.3362862 0.018918,-0.00142 0.014549,-0.019724 C 5.0526991,4.1108253 4.9510055,3.9900535 4.8494727,3.8692826 l 0.032661,-0.014871 a 0.0662871,0.0662871 0 0 1 0.056425,-0.019564 3.6461138,3.6461138 0 0 1 -0.016169,-0.00809 c 0.1634544,0.016329 0.3723398,0.1526214 0.5429076,0.1086457 0.015686,-0.027324 0.016492,-0.042035 0.00695,-0.068711 0.1817232,0.00453 0.5086315,-0.056266 0.6127509,-0.1445378 -0.2796991,0.058684 -0.5946435,0.078577 -0.8513851,0.044302 L 5.006135,3.7397815 4.993364,3.7407593 5.054639,3.6308194 c 0.1875469,-0.00356 0.6793651,-0.00827 0.7787953,-0.1259495 L 5.8114505,3.4754482 5.7257621,3.463155 c -0.00744,0.010995 -0.00857,0.021342 -0.0097,0.031849 l 0.067904,0.00729 C 5.6365134,3.5394746 5.2258565,3.6178901 5.0918276,3.5721411 5.077761,3.5550034 5.0881032,3.4955104 5.0887698,3.4526626 a 0.15650223,0.15650223 0 0 0 -9.777e-4,-0.02296 C 5.2805095,3.3721476 5.4235931,3.2424815 5.482281,3.0468541 5.515748,2.9348129 5.493598,2.7876875 5.56603,2.7178434 c 0.046239,0.004 0.055618,0.023609 0.089568,0.036862 -0.017947,-0.024898 -0.043654,-0.0388 -0.075826,-0.050115 L 5.519467,2.7461454 C 5.4643396,2.7674876 5.4066198,2.7117013 5.31301,2.7551944 5.2370219,2.6901991 5.1941781,2.5875366 5.0915135,2.5482497 L 5.0810035,2.5304627 5.2054939,2.4093674 C 5.1647479,2.4434824 5.1232009,2.4837404 5.08165,2.524157 L 4.998226,2.486806 4.993396,2.474682 C 5.088461,2.40742 5.1728565,2.382527 5.2810175,2.403865 c 0.00501,0.010018 0.010345,0.019884 0.015521,0.029911 -0.00501,0.00853 -0.00954,0.010995 -0.013901,0.013422 l -0.036376,-0.0097 c 0.015686,0.00922 0.032013,0.012124 0.048341,0.01504 l 0.013743,-0.013422 0.00208,-0.018755 C 5.2868205,2.399348 5.2795485,2.384148 5.2331445,2.38253 L 5.2552955,2.349872 C 5.2022685,2.386414 5.0945902,2.396112 5.0418834,2.4278 l 0.121899,-0.096034 0.014549,-0.019564 -0.225538,0.1345148 c -0.048179,-0.0032 -0.099428,-0.025865 -0.1254581,-0.052869 a 6.379729,6.379729 0 0 0 -0.012447,9.777e-4 l 0.267735,-0.1810772 -0.00434,-0.018267 C 4.9767519,2.2546593 4.8750577,2.3138314 4.7736874,2.3731671 l -0.097329,-0.023929 0.00906,-0.087466 0.6979545,-0.5480815 0.012447,-9.777e-4 -0.00986,-0.024089 C 5.3600869,1.6763308 5.2538638,1.7625082 5.2137679,1.7882156 5.0592063,1.8873235 4.9225901,2.0106819 4.770615,2.1002503 4.8333454,2.0205441 4.9481348,1.9411614 4.9672126,1.8250776 l -0.030718,-0.00391 -0.047858,0.040747 0.052062,-0.022631 C 4.9070725,1.9416236 4.7547715,2.1243169 4.6687601,2.1821974 L 4.6587388,2.1581087 C 4.7146816,2.0640132 4.7698103,1.937421 4.7439419,1.8166492 l -0.046887,-0.027484 -0.050278,0.00373 c 0.032172,0.012773 0.053999,0.015849 0.077604,0.031529 0.015038,0.1170536 -0.042523,0.1962754 -0.073562,0.2910162 l -0.01326,0.00711 c -0.020697,-0.03832 -0.019401,-0.056746 -0.061922,-0.063697 l -0.00372,-0.024578 0.029105,-0.039449 0.020049,-0.013911 c 0.00679,0.012933 0.00711,0.00827 0.00921,0.030391 a 0.06273023,0.06273023 0 0 0 0.00954,-0.031689 L 4.6160546,1.968955 4.5531625,2.035568 C 4.5006161,2.0004838 4.4427366,1.9636217 4.3688505,1.9498796 4.4107259,1.8630623 4.5379634,1.7235341 4.4723229,1.6134325 4.3921322,1.4795648 4.1184144,1.6338057 4.0181757,1.7400247 a 0.19902297,0.19902297 0 0 0 -0.03007,0.039449 c 0.00646,-0.00516 0.016817,-0.013262 0.03007,-0.02328 C 4.1171214,1.6824695 4.3804912,1.5059193 4.4375628,1.6470626 4.4973856,1.7257999 4.3827569,1.877288 4.3515517,1.9388868 4.2448457,1.9280513 4.133289,1.9178647 4.0184993,1.9201313 A 1.1999581,1.1999581 0 0 0 3.6626507,1.9773666 C 3.6044475,1.996602 3.3561132,2.1453479 3.3465746,2.1434074 L 3.2334011,2.0337911 2.9967076,1.9149589 l -0.00128,0.012444 -0.013907,0.013422 0.3033043,0.2567409 -0.046239,0.028293 C 3.1137682,2.1312635 3.0277563,2.0738691 2.8419909,2.0255272 l -0.031366,0.00249 c 0.1084843,0.074693 0.2177776,0.1430827 0.3269083,0.2116344 l 0.021826,0.029422 C 3.081433,2.3018901 3.0484509,2.3701191 2.9826485,2.4124789 2.8798227,2.3633325 2.784596,2.3187069 2.6599437,2.281036 l -0.00873,0.025538 0.2334597,0.1503592 0.012612,-9.778e-4 -0.040257,0.027813 c -0.018597,0.062569 -0.054974,0.1351601 -0.085368,0.2234361 -0.1164065,0.094742 -0.26725,0.089083 -0.2906933,0.2821238 -0.037183,0.010187 -0.063376,0.013422 -0.097329,0.03832 l -0.00257,0.025058 c 0.021344,0.029742 0.2103402,0.1097781 0.255448,0.117539 l 0.02781,-0.026836 z m 1.3807114,-1.3347964 0.017299,0.0032 -0.023123,-0.00293 c -0.00404,0 -0.00808,3.244e-4 -0.011964,4.853e-4 0.018271,-0.033946 0.071946,-0.042355 0.1235205,-0.03864 l -0.00355,0.024578 -0.1008858,0.00498 -0.00128,0.00809 z m 0.072108,0.044782 0.048499,-0.015849 c 0.02102,-0.034924 0.032985,-0.071946 0.02231,-0.1057363 -0.04996,-0.00986 -0.078736,0.00222 -0.1254607,0.021982 a 8.0304396,8.0304396 0 0 0 -0.025383,0.041555 l -0.0097,0.016169 a 0.09215524,0.09215524 0 0 0 0.0097,0.00971 c 0.015844,0.012933 0.034922,0.017467 0.070006,0.014551 0.0097,0.016489 -0.00159,0.00922 -0.018918,0.013742 l 0.029105,0.00382 z m 1.196886,0.3755731 -0.052062,0.0097 0.032013,-0.00222 0.0367,0.015849 -0.055618,0.1018563 c 0.028616,-0.033795 0.057073,-0.057724 0.069197,-0.10897 z m -0.299101,1.6272703 c -0.012936,-0.02312 -0.027003,-0.03832 -0.041063,-0.041875 0.012447,0.011804 0.026838,0.025707 0.041063,0.041875 z m -0.1645855,0.5005484 -0.041063,0.023929 0.031524,-0.00293 0.0097,-0.021022 z M 5.014698,3.8563724 C 5.056574,3.9035814 5.087938,3.9941201 5.078883,4.0649339 5.126417,3.9622696 5.072253,3.898246 5.014698,3.8563724 Z"
       id="path21"
       style="fill:#ffffff;stroke-width:0.161676" />
    <text
       xml:space="preserve"
       style="font-style:normal;font-variant:normal;font-weight:bold;font-stretch:normal;font-size:2.64583px;line-height:1.25;font-family:Verdana;-inkscape-font-specification:'Verdana Bold';stroke-width:0.264583"
       x="40.688637"
       y="7.0821691"
       id="text20545"><tspan
         sodipodi:role="line"
         id="tspan20543"
         style="font-style:normal;font-variant:normal;font-weight:bold;font-stretch:normal;font-family:Verdana;-inkscape-font-specification:'Verdana Bold';stroke-width:0.264583"
         x="40.688637"
         y="7.0821691" /></text>
    <text
       xml:space="preserve"
       style="font-weight:bold;font-size:3.18936px;line-height:1.25;font-family:Verdana;-inkscape-font-specification:'Verdana Bold';stroke-width:0.318936"
       x="8.2411118"
       y="4.5630159"
       id="text23915"><tspan
         sodipodi:role="line"
         id="tspan23913"
         style="fill:#ffffff;stroke-width:0.318936"
         x="8.2411118"
         y="4.5630159">Habr Q&amp;A</tspan></text>
  </g>
</svg>
